# xmcd
#
# Track frame offsets: 
#        150
#        13082
#        26667
#        41702
#        54905
#        67350
#        81067
#        94492
#        106797
#        119690
#        132395
#        146752
#        158915
#        169900
#        182865
#        194045
#        207755
#        218970
#        231310
#        243745
#        256612
#        271692
#        284617
#        299780
#        313702
#        324017
#        336795
#
# Disc length: 4671 seconds
#
# Revision: 0
# Processed by: cddbd v1.5.1PL0 Copyright (c) Steve Scherf et al.
# Submitted via: ExactAudioCopy v0.90b4
#
DISCID=ac123d1b
DTITLE=Dinah Washington - Queen Of The Blues
DYEAR=2004
DGENRE=Blues
TTITLE0=Evil Gal Blues
TTITLE1=Salty Papa Blues
TTITLE2=Blowtop Blues
TTITLE3=Embraceable You
TTITLE4=I Can't Get Started
TTITLE5=Stairway To The Stars
TTITLE6=West Side Baby
TTITLE7=You Can Depend On Me
TTITLE8=Ain't Misbehavin'
TTITLE9=Am I Asking Too Much?
TTITLE10=Long John Blues
TTITLE11=It's Too Soon To Know
TTITLE12=Good Daddy Blues
TTITLE13=Baby, Get Lost
TTITLE14=I Only Know
TTITLE15=It Isn't Fair
TTITLE16=If I Loved You
TTITLE17=Big Deal
TTITLE18=I'll Never Be Free
TTITLE19=I Wanna Be Loved
TTITLE20=Time Out For Tears
TTITLE21=Just One More Chance
TTITLE22=Cold, Cold Heart
TTITLE23=Baby, Did You Hear Me?
TTITLE24=The Wheel Of Fortune
TTITLE25=Mad About The Boy
TTITLE26=Stormy Weather
EXTD=
EXTT0=
EXTT1=
EXTT2=
EXTT3=
EXTT4=
EXTT5=
EXTT6=
EXTT7=
EXTT8=
EXTT9=
EXTT10=
EXTT11=
EXTT12=
EXTT13=
EXTT14=
EXTT15=
EXTT16=
EXTT17=
EXTT18=
EXTT19=
EXTT20=
EXTT21=
EXTT22=
EXTT23=
EXTT24=
EXTT25=
EXTT26=
PLAYORDER=
